{"title":"Gravity_2013_CamRip.mp4","uid":9049832,"size":353354765,"categoryP":"video","categoryS":"movies","magnet":"?xt=urn:btih:c6150ce11c9da7dcf0f64764daed0f70ef834b11&amp;dn=Gravity_2013_CamRip.mp4&amp;tr=udp%3A%2F%2Ftracker.openbittorrent.com%3A80&amp;tr=udp%3A%2F%2Fopen.demonii.com%3A1337&amp;tr=udp%3A%2F%2Ftracker.coppersurfer.tk%3A6969&amp;tr=udp%3A%2F%2Fexodus.desync.com%3A6969","seeders":1,"leechers":0,"uploader":"globeplus","files":-1,"time":1381847094,"description":"Gravity_2013_CamRip.mp4\n\nFormat                                   : MPEG-4\nFormat profile                           : Base Media\nCodec ID                                 : isom\nFile size                                : 337 MiB\nDuration                                 : 1h 21mn\nOverall bit rate                         : 578 Kbps\nWriting application                      : Lavf54.32.101\n\nVideo\n\nID                                       : 1\nFormat                                   : AVC\nFormat/Info                              : Advanced Video Codec\nFormat profile                           : &lt;a class=&quot;__cf_email__&quot; href=&quot;/cdn-cgi/l/email-protection&quot; data-cfemail=&quot;377f5e505f777b041907&quot;&gt;[email&amp;#160;protected]&lt;/a&gt;&lt;script cf-hash='f9e31' type=&quot;text/javascript&quot;&gt;\n/* &lt;![CDATA[ */!function(){try{var t=&quot;currentScript&quot;in document?document.currentScript:function(){for(var t=document.getElementsByTagName(&quot;script&quot;),e=t.length;e--;)if(t[e].getAttribute(&quot;cf-hash&quot;))return t[e]}();if(t&amp;&amp;t.previousSibling){var e,r,n,i,c=t.previousSibling,a=c.getAttribute(&quot;data-cfemail&quot;);if(a){for(e=&quot;&quot;,r=parseInt(a.substr(0,2),16),n=2;a.length-n;n+=2)i=parseInt(a.substr(n,2),16)^r,e+=String.fromCharCode(i);e=document.createTextNode(e),c.parentNode.replaceChild(e,c)}}}catch(u){}}();/* ]]&gt; */&lt;/script&gt;\nFormat settings, CABAC                   : Yes\nFormat settings, ReFrames                : 4 frames\nFormat settings, GOP                     : M=4, N=60\nCodec ID                                 : avc1\nCodec ID/Info                            : Advanced Video Coding\nDuration                                 : 1h 21mn\nBit rate mode                            : Variable\nBit rate                                 : 474 Kbps\nWidth                                    : 720 pixels\nHeight                                   : 340 pixels\nDisplay aspect ratio                     : 2.105\nFrame rate mode                          : Constant\nFrame rate                               : 29.970 fps\nColor space                              : YUV\nChroma subsampling                       : 4:2:0\nBit depth                                : 8 bits\nScan type                                : Progressive\nBits/(Pixel*Frame)                       : 0.065\nStream size                              : 276 MiB (82%)\nWriting library                          : x264 core 128 r2216 198a7ea\n\n\nAudio\n\nID                                       : 2\nFormat                                   : AAC\nFormat/Info                              : Advanced Audio Codec\nFormat profile                           : LC\nCodec ID                                 : 40\nDuration                                 : 1h 21mn\nDuration_LastFrame                       : -11ms\nBit rate mode                            : Constant\nBit rate                                 : 96.0 Kbps\nChannel(s)                               : 2 channels\nChannel positions                        : Front: L R\nSampling rate                            : 48.0 KHz\nCompression mode                         : Lossy\nStream size                              : 56.1 MiB (17%)\n\n\nPlot\n\nBio-medical engineer Dr. Ryan Stone is a Mission Specialist on her first space shuttle mission, accompanied by veteran astronaut Matt Kowalski, who is commanding his final expedition. During the final spacewalk to service the Hubble Space Telescope, Mission Control in Houston warns Stone and Kowalski that debris from a Russian anti-satellite test has caused a chain reaction of destruction and that they must abort the mission. Shortly afterward, communications from Mission Control are lost, though Stone and Kowalski continue to transmit in hopes that the ground crew can hear them.\n\nHigh-speed debris damages the space shuttle Explorer and Stone tumbles out of control away from it. Kowalski, who is wearing a thruster pack, navigates to Stone and retrieves her. Tethered together, the two make their way back to Explorer, where they discover it has been damaged far beyond usability, and the rest of the crew are dead. They decide to use the thruster pack to make their way to the International Space Station (ISS), which is in orbit only about 100 km (60 mi) away. Kowalski estimates they have 90 minutes before the debris field completes an orbit and threatens them again.\n\n\n\n* enjoy ...\n\n","torrent":{"xt":"urn:btih:c6150ce11c9da7dcf0f64764daed0f70ef834b11","amp;dn":"Gravity_2013_CamRip.mp4","amp;tr":["udp%3A%2F%2Ftracker.openbittorrent.com%3A80","udp%3A%2F%2Fopen.demonii.com%3A1337","udp%3A%2F%2Ftracker.coppersurfer.tk%3A6969","udp%3A%2F%2Fexodus.desync.com%3A6969"],"infoHash":"c6150ce11c9da7dcf0f64764daed0f70ef834b11","infoHashBuffer":{"type":"Buffer","data":[198,21,12,225,28,157,167,220,240,246,71,100,218,237,15,112,239,131,75,17]},"announce":[],"urlList":[]}}